<svg width="127" height="20" viewBox="0 0 127 20" fill="none" xmlns="http://www.w3.org/2000/svg">
<path d="M10.8149 19H0.536621V1.15332H10.8149V4.25391H4.3208V8.17236H10.3633V11.2729H4.3208V15.875H10.8149V19ZM17.9805 19H14.2573V0.00585938H17.9805V19ZM27.4165 7.74512C26.7573 7.74512 26.208 7.97705 25.7686 8.44092C25.3372 8.90479 25.089 9.63314 25.0239 10.626H29.7725C29.7643 10.2109 29.7114 9.82845 29.6138 9.47852C29.5161 9.12858 29.3696 8.82747 29.1743 8.5752C28.979 8.31478 28.7349 8.11133 28.4419 7.96484C28.1489 7.81836 27.8071 7.74512 27.4165 7.74512ZM27.8926 19.2441C26.916 19.2441 26.0168 19.1017 25.1948 18.8169C24.3729 18.5321 23.6649 18.1048 23.0708 17.5352C22.4767 16.9574 22.0129 16.2331 21.6792 15.3623C21.3537 14.4834 21.1909 13.4539 21.1909 12.2739C21.1909 11.0776 21.3415 10.0319 21.6426 9.13672C21.9437 8.24154 22.3628 7.49691 22.8999 6.90283C23.4451 6.30062 24.0962 5.84896 24.853 5.54785C25.618 5.24674 26.4644 5.09619 27.3921 5.09619C28.2954 5.09619 29.1092 5.23454 29.8335 5.51123C30.5659 5.77979 31.1844 6.17855 31.689 6.70752C32.2017 7.23649 32.5923 7.88753 32.8608 8.66064C33.1375 9.42562 33.2759 10.3045 33.2759 11.2974V13.104H24.9507C24.967 13.6248 25.0483 14.0968 25.1948 14.52C25.3494 14.9351 25.561 15.2891 25.8296 15.582C26.1063 15.8669 26.4359 16.0866 26.8184 16.2412C27.209 16.3958 27.6525 16.4731 28.1489 16.4731C28.564 16.4731 28.9546 16.4528 29.3208 16.4121C29.6951 16.3633 30.0573 16.2941 30.4072 16.2046C30.7572 16.1151 31.103 16.0052 31.4448 15.875C31.7866 15.7367 32.1366 15.578 32.4946 15.3989V18.2798C32.1691 18.4507 31.8395 18.5972 31.5059 18.7192C31.1803 18.8332 30.8345 18.9308 30.4683 19.0122C30.1021 19.0936 29.7074 19.1506 29.2842 19.1831C28.861 19.2238 28.3971 19.2441 27.8926 19.2441ZM48.144 19H44.4209V11.0288C44.4209 10.0441 44.2744 9.30762 43.9814 8.81934C43.6885 8.32292 43.2287 8.07471 42.6021 8.07471C42.13 8.07471 41.7354 8.17236 41.418 8.36768C41.1087 8.56299 40.8605 8.85189 40.6733 9.23438C40.4862 9.61686 40.3519 10.0889 40.2705 10.6504C40.1891 11.2119 40.1484 11.8548 40.1484 12.5791V19H36.4253V5.35254H39.2695L39.77 7.09814H39.9775C40.1729 6.74821 40.4048 6.4471 40.6733 6.19482C40.95 5.94255 41.2511 5.73503 41.5767 5.57227C41.9022 5.40951 42.248 5.2915 42.6143 5.21826C42.9805 5.13688 43.3507 5.09619 43.7251 5.09619C44.661 5.09619 45.4544 5.25895 46.1055 5.58447C46.7646 5.90186 47.2692 6.40641 47.6191 7.09814H47.9243C48.1196 6.74821 48.3556 6.4471 48.6323 6.19482C48.909 5.94255 49.2142 5.73503 49.5479 5.57227C49.8815 5.40951 50.2314 5.2915 50.5977 5.21826C50.972 5.13688 51.3464 5.09619 51.7207 5.09619C53.1855 5.09619 54.2882 5.49495 55.0288 6.29248C55.7775 7.08187 56.1519 8.3514 56.1519 10.1011V19H52.4165V11.0288C52.4165 10.0441 52.27 9.30762 51.9771 8.81934C51.6841 8.32292 51.2243 8.07471 50.5977 8.07471C49.7106 8.07471 49.0799 8.42871 48.7056 9.13672C48.3312 9.83659 48.144 10.8416 48.144 12.1519V19ZM65.5024 7.74512C64.8433 7.74512 64.2939 7.97705 63.8545 8.44092C63.4232 8.90479 63.175 9.63314 63.1099 10.626H67.8584C67.8503 10.2109 67.7974 9.82845 67.6997 9.47852C67.6021 9.12858 67.4556 8.82747 67.2603 8.5752C67.0649 8.31478 66.8208 8.11133 66.5278 7.96484C66.2349 7.81836 65.8931 7.74512 65.5024 7.74512ZM65.9785 19.2441C65.002 19.2441 64.1027 19.1017 63.2808 18.8169C62.4588 18.5321 61.7508 18.1048 61.1567 17.5352C60.5627 16.9574 60.0988 16.2331 59.7651 15.3623C59.4396 14.4834 59.2769 13.4539 59.2769 12.2739C59.2769 11.0776 59.4274 10.0319 59.7285 9.13672C60.0296 8.24154 60.4487 7.49691 60.9858 6.90283C61.5311 6.30062 62.1821 5.84896 62.939 5.54785C63.7039 5.24674 64.5503 5.09619 65.478 5.09619C66.3813 5.09619 67.1951 5.23454 67.9194 5.51123C68.6519 5.77979 69.2703 6.17855 69.7749 6.70752C70.2876 7.23649 70.6782 7.88753 70.9468 8.66064C71.2235 9.42562 71.3618 10.3045 71.3618 11.2974V13.104H63.0366C63.0529 13.6248 63.1343 14.0968 63.2808 14.52C63.4354 14.9351 63.647 15.2891 63.9155 15.582C64.1922 15.8669 64.5218 16.0866 64.9043 16.2412C65.2949 16.3958 65.7384 16.4731 66.2349 16.4731C66.6499 16.4731 67.0405 16.4528 67.4067 16.4121C67.7811 16.3633 68.1432 16.2941 68.4932 16.2046C68.8431 16.1151 69.189 16.0052 69.5308 15.875C69.8726 15.7367 70.2225 15.578 70.5806 15.3989V18.2798C70.255 18.4507 69.9255 18.5972 69.5918 18.7192C69.2663 18.8332 68.9204 18.9308 68.5542 19.0122C68.188 19.0936 67.7933 19.1506 67.3701 19.1831C66.9469 19.2238 66.4831 19.2441 65.9785 19.2441ZM86.3521 19H82.6289V11.0288C82.6289 10.0441 82.4784 9.30762 82.1772 8.81934C81.8843 8.32292 81.4123 8.07471 80.7612 8.07471C80.2729 8.07471 79.866 8.17236 79.5405 8.36768C79.215 8.56299 78.9546 8.85189 78.7593 9.23438C78.5721 9.61686 78.4378 10.0889 78.3564 10.6504C78.2751 11.2119 78.2344 11.8548 78.2344 12.5791V19H74.5112V5.35254H77.3555L77.856 7.09814H78.0635C78.2588 6.74821 78.4948 6.4471 78.7715 6.19482C79.0563 5.94255 79.3656 5.73503 79.6992 5.57227C80.0329 5.40951 80.3869 5.2915 80.7612 5.21826C81.1356 5.13688 81.5181 5.09619 81.9087 5.09619C82.576 5.09619 83.1823 5.19385 83.7275 5.38916C84.2728 5.57633 84.7407 5.87337 85.1313 6.28027C85.522 6.68717 85.8231 7.20801 86.0347 7.84277C86.2463 8.4694 86.3521 9.22217 86.3521 10.1011V19ZM95.7271 16.2778C96.0933 16.2778 96.4391 16.2371 96.7646 16.1558C97.0983 16.0744 97.436 15.9727 97.7778 15.8506V18.6216C97.4279 18.8006 96.9925 18.9471 96.4717 19.061C95.959 19.1831 95.3975 19.2441 94.7871 19.2441C94.193 19.2441 93.6396 19.175 93.127 19.0366C92.6143 18.8983 92.1707 18.6582 91.7964 18.3164C91.422 17.9665 91.125 17.5026 90.9053 16.9248C90.6937 16.3389 90.5879 15.6064 90.5879 14.7275V8.14795H88.8057V6.57324L90.8564 5.32812L91.9307 2.44727H94.311V5.35254H97.6313V8.14795H94.311V14.7275C94.311 15.2565 94.4412 15.6471 94.7017 15.8994C94.9621 16.1517 95.3039 16.2778 95.7271 16.2778ZM108.459 19L107.739 17.1445H107.629C107.36 17.5107 107.092 17.8281 106.823 18.0967C106.555 18.3571 106.262 18.5728 105.944 18.7437C105.627 18.9146 105.269 19.0407 104.87 19.1221C104.479 19.2035 104.024 19.2441 103.503 19.2441C102.95 19.2441 102.437 19.1587 101.965 18.9878C101.493 18.8088 101.082 18.5443 100.732 18.1943C100.39 17.8363 100.122 17.3887 99.9263 16.8516C99.731 16.3063 99.6333 15.6634 99.6333 14.9229C99.6333 13.4743 100.097 12.4082 101.025 11.7246C101.953 11.0329 103.34 10.6504 105.188 10.5771L107.36 10.5039V9.47852C107.36 8.91699 107.198 8.50195 106.872 8.2334C106.547 7.96484 106.091 7.83057 105.505 7.83057C104.919 7.83057 104.345 7.91602 103.784 8.08691C103.23 8.25781 102.673 8.48568 102.111 8.77051L100.903 6.30469C101.586 5.9222 102.343 5.62109 103.173 5.40137C104.003 5.18164 104.874 5.07178 105.786 5.07178C107.486 5.07178 108.789 5.47054 109.692 6.26807C110.603 7.06559 111.059 8.27816 111.059 9.90576V19H108.459ZM107.36 12.6768L106.127 12.7256C105.631 12.7419 105.212 12.807 104.87 12.9209C104.528 13.0348 104.252 13.1895 104.04 13.3848C103.837 13.5719 103.686 13.7998 103.588 14.0684C103.499 14.3288 103.454 14.6217 103.454 14.9473C103.454 15.5169 103.592 15.9238 103.869 16.168C104.146 16.404 104.508 16.522 104.956 16.522C105.297 16.522 105.615 16.465 105.908 16.3511C106.201 16.229 106.453 16.054 106.665 15.8262C106.884 15.5902 107.055 15.3053 107.177 14.9717C107.299 14.6299 107.36 14.2393 107.36 13.7998V12.6768ZM118.615 19H114.892V0.00585938H118.615V19ZM122.009 17.2544C122.009 16.8719 122.062 16.5505 122.167 16.29C122.281 16.0215 122.436 15.8058 122.631 15.6431C122.827 15.4803 123.055 15.3623 123.315 15.2891C123.575 15.2158 123.856 15.1792 124.157 15.1792C124.442 15.1792 124.711 15.2158 124.963 15.2891C125.223 15.3623 125.451 15.4803 125.646 15.6431C125.842 15.8058 125.996 16.0215 126.11 16.29C126.224 16.5505 126.281 16.8719 126.281 17.2544C126.281 17.6206 126.224 17.9339 126.11 18.1943C125.996 18.4548 125.842 18.6704 125.646 18.8413C125.451 19.0122 125.223 19.1343 124.963 19.2075C124.711 19.2889 124.442 19.3296 124.157 19.3296C123.856 19.3296 123.575 19.2889 123.315 19.2075C123.055 19.1343 122.827 19.0122 122.631 18.8413C122.436 18.6704 122.281 18.4548 122.167 18.1943C122.062 17.9339 122.009 17.6206 122.009 17.2544Z" fill="black"/>
</svg>
